<?xml version="1.0" encoding="UTF-8"?>
<!-- Generated by Pixelmator Pro 3.4.3 -->
<svg width="360" height="360" viewBox="0 0 360 360" xmlns="http://www.w3.org/2000/svg">
    <path id="Path" fill="#ffffff" stroke="none" visibility="hidden" d="M 976.574585 -430.607727 L -216.795578 -430.607727 L -216.795578 762.762451 L 976.574585 762.762451 L 976.574585 -430.607727 Z"/>
    <path id="path1" fill="#329dc7" stroke="none" d="M 127.207291 180.913925 C 129.518463 180.913925 130.675034 183.872467 130.675034 189.788635 C 130.420425 193.995239 129.068954 198.063644 126.757797 201.58905 C 123.941444 206.297867 120.399109 210.531372 116.260117 214.127426 C 111.953049 217.926315 107.118881 221.076782 101.908844 223.485397 C 97.10154 225.822464 91.84079 227.074478 86.498459 227.152039 C 79.692276 227.152039 75.133583 221.171295 72.822418 209.208694 C 69.492928 214.65744 64.970047 219.27478 59.594913 222.712723 C 53.040321 226.554352 45.509163 228.400116 37.92432 228.019241 C 33.889729 228.194229 29.862099 227.52594 26.099009 226.059113 C 22.334917 224.591263 18.91691 222.358673 16.060768 219.497543 C 13.383639 216.816467 11.284309 213.608276 9.893037 210.079895 C 8.501764 206.551468 7.847409 202.776474 7.970717 198.984558 C 7.970717 177.119034 15.226414 159.884766 29.737789 147.278763 C 34.739014 142.697235 40.598457 139.15593 46.978024 136.861664 C 52.43568 135.168076 58.119102 134.324738 63.833359 134.351624 C 68.841545 134.190475 73.810951 135.296326 78.280106 137.566727 C 80.078133 133.839462 82.131729 131.973785 84.443863 131.973785 C 86.866409 132.054382 89.250168 132.615234 91.453926 133.623672 C 93.658661 134.635025 95.640663 136.072052 97.285515 137.857117 C 100.657799 140.549194 102.827721 144.468399 103.321983 148.759552 C 101.00985 153.998459 98.37149 159.088165 95.423874 163.999893 C 94.237442 172.241104 93.722328 180.562851 93.882423 188.888611 C 93.882423 199.605072 95.230949 204.965302 97.92794 204.965302 C 101.266418 204.965302 109.357452 198.276459 122.199104 184.900757 C 124.510269 182.242554 126.180016 180.913925 127.207291 180.913925 Z M 36.287403 192.615891 C 36.287403 202.519913 39.947079 207.472382 47.266399 207.472382 C 55.099895 207.344055 61.584866 203.164337 66.722305 194.933029 C 68.697357 191.695038 70.189072 188.183533 71.15271 184.512955 C 70.940872 172.05513 72.23468 159.61824 75.005302 147.470703 C 64.606071 149.52829 55.109821 154.791046 47.845184 162.519119 C 44.012474 166.512909 41.016121 171.232727 39.031147 176.400009 C 37.046188 181.568314 36.113365 187.083633 36.287403 192.615891 Z"/>
    <path id="path2" fill="#329dc7" stroke="none" d="M 212.15538 168.054337 C 212.15538 163.767181 209.715927 161.625092 204.836014 161.625092 C 201.496567 161.625092 197.772263 164.839233 193.663101 171.269516 C 189.574799 177.70871 186.581451 184.782455 184.802338 192.204178 L 184.802338 192.58905 C 184.83313 197.162643 185.514374 201.710373 186.825089 206.095016 C 187.878235 209.215683 188.557465 212.457687 188.846848 215.739441 C 188.846848 220.026657 183.38916 224.314774 172.473816 228.602005 C 171.066635 229.188705 169.565964 229.51593 168.043411 229.566605 C 166.532822 229.607391 165.052032 229.13208 163.844757 228.221115 C 162.637451 227.310165 161.775253 226.018326 161.397354 224.550476 C 160.022964 220.151932 159.404434 215.554489 159.568497 210.949036 C 159.568497 205.224854 159.728622 199.864624 160.048828 194.872391 C 160.370041 189.87616 160.691284 185.184204 161.012497 180.788651 C 161.33371 176.501434 161.654922 172.706528 161.976135 169.403839 C 162.296356 166.105209 162.457443 163.43602 162.457443 161.399353 C 162.457443 157.111176 160.467529 154.96907 156.485641 154.96907 C 152.504745 154.96907 147.881439 159.631165 142.616684 168.955338 C 137.351929 178.278549 134.718567 185.676468 134.718567 191.141113 C 134.671829 196.261642 135.352051 201.35936 136.741333 206.287979 C 137.795471 209.411621 138.474686 212.649612 138.764099 215.932388 C 138.764099 220.219559 133.306412 224.506775 122.391068 228.79393 C 120.983871 229.381668 119.483208 229.708832 117.960663 229.759567 C 116.450043 229.796356 114.973259 229.317017 113.766945 228.406067 C 112.561668 227.499115 111.697449 226.207275 111.314598 224.743423 C 109.875572 219.73027 109.257027 214.51825 109.484741 209.310181 C 109.176453 196.08963 109.885529 182.870041 111.603973 169.757889 C 113.58297 157.658112 118.043213 146.094376 124.702202 135.802551 C 125.401321 134.34465 126.456459 133.083649 127.769173 132.141861 C 129.081894 131.19812 130.610382 130.597458 132.214478 130.40152 C 136.495682 130.40152 140.411926 133.876236 143.96521 140.81868 C 144.895035 142.413834 145.669724 144.09346 146.276337 145.834824 C 148.741653 142.329269 151.997574 139.455231 155.779541 137.445404 C 159.560547 135.431625 163.762207 134.341675 168.043411 134.261124 C 173.490173 134.233261 178.759888 136.186401 182.876022 139.759567 C 184.926636 141.415344 186.572495 143.516708 187.685303 145.908386 C 188.798111 148.30014 189.350067 150.914581 189.296341 153.552933 L 189.296341 155.674149 C 192.593033 151.144318 196.910049 147.453827 201.896362 144.906937 C 206.883636 142.360107 212.399994 141.024521 217.99791 141.013596 C 220.858002 140.808731 223.730042 141.182632 226.442978 142.110519 C 229.155899 143.038345 231.656021 144.502197 233.794128 146.414612 C 235.552368 148.148941 236.937683 150.223404 237.86554 152.513718 C 238.793365 154.80101 239.242859 157.256363 239.188171 159.725616 C 239.228958 164.509033 238.84111 169.28949 238.031601 174.005295 C 237.260895 178.292511 236.394699 182.276352 235.431061 185.963882 C 234.467392 189.65036 233.601196 192.962952 232.83049 195.901642 C 232.173157 198.097458 231.785309 200.363861 231.674927 202.654175 C 231.674927 204.260239 232.189072 205.066727 233.215347 205.066727 C 235.938232 204.688828 238.452271 203.396988 240.342773 201.400085 C 243.169052 198.95372 245.993362 196.285507 248.818665 193.391602 L 256.620331 185.386093 C 259.082642 182.877029 260.741425 181.624939 261.595703 181.624939 C 263.393707 181.624939 264.293701 183.76709 264.293701 188.055222 C 264.293701 197.058243 259.766846 205.805603 250.713135 214.29245 C 243.126282 222.192596 232.756897 226.807953 221.818665 227.155014 C 212.573044 227.155014 207.949738 218.731842 207.949738 201.882462 C 208.138687 195.979218 208.847733 190.102875 210.068939 184.324005 C 211.212585 178.970749 211.910736 173.525955 212.15538 168.054337 Z"/>
    <path id="path3" fill="#329dc7" stroke="none" d="M 318.101776 210.175369 C 313.776825 215.744415 308.244507 220.25737 301.919647 223.365097 C 295.594818 226.474777 288.645416 228.100754 281.598572 228.117691 C 267.41037 228.117691 256.78244 224.484863 249.719666 217.21524 C 246.234024 213.646088 243.512146 209.398682 241.724075 204.74054 C 239.935028 200.078461 239.116577 195.100128 239.317459 190.110825 C 238.909729 175.561646 244.080002 161.410278 253.764206 150.561554 C 258.52475 145.120773 264.434906 140.809708 271.064087 137.942642 C 277.696259 135.071625 284.881317 133.715149 292.096252 133.968735 C 297.996429 133.752899 303.879761 134.669861 309.434906 136.670715 C 317.011841 139.756592 320.799744 142.651459 320.799744 145.349487 C 320.799744 147.495575 315.500214 148.568604 304.908051 148.568604 C 299.959534 148.477127 295.047852 149.404953 290.474274 151.297455 C 285.902649 153.189957 281.767639 156.003311 278.322754 159.565552 C 274.784424 163.18837 272.011841 167.492462 270.177032 172.21524 C 268.338257 176.94101 267.475037 181.987976 267.633148 187.053833 C 267.468079 192.377228 269.289948 197.572357 272.736816 201.619873 C 274.568604 203.627701 276.829071 205.193039 279.345093 206.204391 C 281.862122 207.219757 284.574036 207.651367 287.28299 207.473343 C 292.710815 207.672256 298.083954 206.335678 302.789825 203.6138 C 298.377319 200.722885 294.795227 196.72908 292.396576 192.026199 C 289.997894 187.320358 288.865204 182.075439 289.11084 176.799759 C 289.023315 170.514679 291.412048 164.449371 295.756927 159.915604 C 297.94577 157.43335 300.647736 155.459335 303.67395 154.127747 C 306.699127 152.79512 309.981873 152.136795 313.287537 152.201431 C 320.411957 152.201431 325.519562 154.161545 328.599426 158.084763 C 331.827545 162.527069 333.456482 167.934036 333.223755 173.422531 C 333.095459 180.246613 331.58783 186.973282 328.794342 193.196701 L 329.948944 193.196701 C 335.358887 193.152939 340.554016 191.065536 344.49118 187.344208 C 346.032623 185.80278 347.351288 184.450256 348.441223 183.292679 C 348.832062 182.803391 349.318329 182.398666 349.871277 182.099365 C 350.421204 181.802002 351.027863 181.616028 351.652405 181.555389 C 353.450378 181.555389 354.347382 183.701416 354.347382 187.988632 C 354.594055 191.26445 354.094818 194.553116 352.89743 197.609146 C 351.696167 200.665222 349.820526 203.411926 347.415924 205.641541 C 343.202332 209.311157 337.808289 211.331909 332.229309 211.331909 C 327.492615 211.402573 322.762909 211.014709 318.101776 210.175369 Z M 316.367401 187.668396 C 318.428955 183.458817 319.524841 178.847412 319.578552 174.161469 C 319.578552 169.874252 318.165405 167.732162 315.342102 167.732162 C 314.184509 167.732162 313.223846 168.568512 312.451172 170.238251 C 311.722198 171.742889 311.327423 173.388718 311.297546 175.062408 C 311.226959 177.420334 311.641632 179.764313 312.514771 181.957138 C 313.385986 184.146942 314.697662 186.132919 316.367401 187.796707 L 316.367401 187.668396 Z"/>
    <path id="path4" fill="#0079f6" stroke="none" visibility="hidden" d="M 754.436646 228.084854 C 765.075562 228.084854 773.70166 219.445831 773.70166 208.793045 C 773.70166 198.136246 765.075562 189.501236 754.436646 189.501236 C 743.796814 189.501236 735.174683 198.136246 735.174683 208.793045 C 735.174683 219.445831 743.796814 228.084854 754.436646 228.084854 Z"/>
    <path id="path5" fill="#0079f6" stroke="none" visibility="hidden" d="M 555.741516 184.448303 C 557.880615 184.448303 558.949707 187.406845 558.949707 193.322952 C 558.636475 197.499771 557.243164 201.523438 554.905151 204.995117 C 552.091797 209.707947 548.546509 213.937439 544.407532 217.536453 C 540.103455 221.338333 535.269287 224.489838 530.057251 226.894501 C 525.435913 229.171829 520.376038 230.422882 515.224609 230.558105 C 511.315369 230.776932 507.431915 229.836105 504.052734 227.859116 C 501.300018 226.027313 499.083344 223.49736 497.629364 220.525833 C 495.491302 216.238678 493.693237 207.912918 492.239349 195.542679 C 491.439758 186.87677 490.025635 178.281525 487.998932 169.817551 C 484.797699 169.240799 481.788422 167.881348 479.234558 165.864548 C 478.04718 165.02121 477.075592 163.901443 476.411255 162.602631 C 475.746979 161.303879 475.405853 159.862854 475.415802 158.403 C 475.311401 157.053513 475.63858 155.700974 476.347656 154.547409 C 477.055695 153.393784 478.111816 152.492844 479.362885 151.972717 C 482.193146 150.644104 485.289978 149.98674 488.416565 150.043442 C 491.641632 149.996704 494.81601 150.866867 497.565765 152.553482 C 501.097107 149.72023 504.069611 146.252487 506.333038 142.325333 C 508.751617 137.214691 509.857452 131.578033 509.541229 125.927414 C 509.672516 122.837585 509.119568 119.754684 507.921204 116.900543 C 506.720886 114.050415 504.905975 111.500549 502.608734 109.432022 C 498.176331 105.297043 491.456696 103.225525 482.446747 103.225525 C 475.541077 102.995789 468.639435 103.710815 461.929688 105.346741 C 457.733032 106.551056 453.641754 108.099457 449.697662 109.979034 C 446.294586 111.651688 443.278381 113.193176 440.643951 114.610291 C 438.387512 115.923004 435.837646 116.650955 433.229156 116.732468 C 430.919006 116.732468 429.761414 115.993591 429.761414 114.512802 C 430.325317 111.820786 431.586304 109.324646 433.422119 107.277008 C 436.461212 103.397552 440.101013 100.03125 444.210144 97.308411 C 456.033508 88.959747 470.194824 84.581116 484.662415 84.803894 C 497.588654 84.361328 510.407379 87.319885 521.836914 93.389191 C 527.22699 96.29007 531.690125 100.647827 534.72229 105.971268 C 537.751526 111.294724 539.229248 117.362991 538.982666 123.485962 C 539.461975 133.419785 536.389099 143.202423 530.313843 151.072693 C 524.59259 158.274689 516.992798 163.749283 508.35379 166.893799 C 510.336792 171.305328 511.919006 175.889832 513.072571 180.592712 C 514.293823 185.476593 515.481201 189.98056 516.637756 194.095703 C 517.565613 197.641006 518.891235 201.07196 520.584839 204.319901 C 521.020447 205.429703 521.755371 206.398331 522.710083 207.113342 C 523.661743 207.828369 524.794495 208.263992 525.978882 208.371368 C 528.893677 208.014343 531.608643 206.691742 533.683105 204.610291 C 536.702332 202.104187 539.687683 199.368408 542.643311 196.409805 C 545.59491 193.451279 548.229309 190.719437 550.540466 188.212372 C 552.978943 185.703293 554.713257 184.448303 555.741516 184.448303 Z M 471.948059 114.995117 C 473.618774 114.995117 474.451141 117.140244 474.451141 121.427399 C 474.465088 125.553452 474.208527 129.678543 473.682465 133.773834 C 472.616364 140.800781 471.135559 147.756165 469.250061 154.611023 C 464.628754 172.101868 462.314575 182.326065 462.314575 185.284668 L 462.314575 213.644089 C 462.591064 216.544952 461.983398 219.459793 460.573273 222.009598 C 459.164124 224.556473 457.018005 226.618027 454.41748 227.923752 L 447.387512 231.137894 C 444.992859 232.197021 442.395264 232.724121 439.776764 232.679321 C 434.383759 232.679321 431.687744 226.475815 431.687744 214.062775 C 432.319244 198.069595 435.237061 182.248489 440.357574 167.085724 C 444.513458 151.962769 450.598663 137.437454 458.461975 123.869812 C 460.037262 121.623322 461.915802 119.609497 464.047943 117.889069 C 466.247742 116.00354 469.054108 114.978241 471.948059 114.995117 Z"/>
    <path id="path6" fill="#0079f6" stroke="none" visibility="hidden" d="M 721.594177 184.452255 C 723.733276 184.452255 724.805298 187.410858 724.805298 193.326965 C 724.47113 197.510696 723.055054 201.531387 720.693176 204.999115 C 717.879761 209.711945 714.33844 213.941437 710.195435 217.541443 C 705.891357 221.33931 701.057251 224.489838 695.846191 226.895477 C 690.630127 229.330917 684.939758 230.58197 679.184753 230.562119 C 676.624939 230.700333 674.0672 230.26178 671.699341 229.273254 C 669.331482 228.291718 667.216187 226.784088 665.505737 224.871689 C 662.31842 221.349258 660.5672 216.761765 660.593994 212.009186 C 660.692444 206.628067 661.468201 201.278763 662.908203 196.093582 C 664.53418 190.260986 666.244629 184.13208 668.042664 177.698761 C 672.923523 160.549042 675.426636 148.52684 675.554871 141.621231 C 675.673279 139.283218 675.278503 136.946152 674.401306 134.773239 C 673.993591 133.966736 673.352173 133.306412 672.55957 132.87381 C 671.769958 132.442184 670.865967 132.263184 669.968933 132.361649 C 666.116394 132.361649 662.008179 134.675812 657.642456 139.307068 C 652.771484 144.653336 648.625549 150.621216 645.312927 157.057449 C 636.9375 171.819427 632.124207 188.334671 631.253052 205.28949 L 632.022766 210.689484 C 632.285278 212.60881 632.417603 214.542114 632.407654 216.478378 C 632.31311 218.695007 631.719421 220.863983 630.66626 222.820099 C 629.617126 224.773239 628.136353 226.463852 626.338318 227.76564 C 622.584229 231.064331 617.757019 232.879211 612.760742 232.876221 C 611.38147 232.876221 610.031982 232.461548 608.888306 231.688858 C 607.744629 230.916107 606.857544 229.816254 606.33844 228.53833 C 604.826843 225.175049 604.104858 221.515335 604.219238 217.827866 C 604.475769 211.944534 605.447388 206.115891 607.110107 200.465286 C 609.036438 193.13504 611.175537 185.353256 613.530518 177.122009 C 619.693237 155.384735 622.84082 139.178818 622.969055 128.502106 C 623.167969 124.123413 622.479797 119.748734 620.944275 115.639542 C 620.299866 114.141876 619.200989 112.887863 617.796814 112.054474 C 616.397583 111.224075 614.767578 110.856125 613.14563 111.012299 C 606.210144 111.012299 599.338379 115.96373 592.534119 125.867752 C 585.72699 135.771713 579.627869 151.140305 574.233826 171.977554 C 572.820679 177.378571 571.751587 182.074478 571.022644 186.061295 L 570.83075 189.72496 C 572.648621 197.334732 573.869812 205.076691 574.490417 212.875336 C 574.490417 220.337906 571.859009 225.35405 566.593262 227.923752 L 559.560364 231.141907 C 557.293945 232.174133 554.830627 232.701233 552.33844 232.684296 C 545.919128 232.684296 542.70697 226.544403 542.70697 214.258652 C 542.70697 201.976898 546.02356 177.9991 552.658691 142.329269 C 555.101074 129.466721 556.318359 122.264725 556.318359 120.723297 C 556.318359 110.303223 553.686951 105.095154 548.421204 105.095154 C 546.66394 105.081192 544.94751 105.621216 543.510498 106.636581 C 542.032715 107.665833 540.554871 108.737885 539.077148 109.854721 C 537.603333 110.967499 536.071838 112.148926 534.489624 113.390076 C 532.918396 114.429291 531.072632 114.965302 529.190063 114.934479 C 527.200134 114.934479 526.204651 113.198151 526.204651 109.72641 C 526.211609 106.228806 527.122559 102.793915 528.843018 99.751862 C 530.563416 96.70871 533.039673 94.165894 536.028076 92.360901 C 542.703979 87.553558 550.766174 85.071381 558.983521 85.28717 C 570.540344 85.28717 577.347534 90.6474 579.4021 101.363861 C 579.915283 104.578979 580.303101 107.989044 580.559631 111.58905 C 590.06189 93.797882 602.0672 84.902344 616.57959 84.902344 C 632.481201 84.902344 641.505066 92.489166 643.643188 107.665833 C 644.436829 112.317001 644.76001 117.036804 644.608826 121.752609 L 644.608826 123.294037 C 652.953491 111.720337 662.841553 105.931519 674.27301 105.931519 C 690.452209 105.931519 698.544189 115.707153 698.544189 135.2556 C 698.345276 145.308762 697.019714 155.307159 694.594116 165.061996 C 691.962769 176.447708 690.036438 184.61438 688.815308 189.565872 C 687.77301 193.311066 687.159424 197.159668 686.984436 201.045074 C 686.984436 205.929916 688.687927 208.375381 692.091003 208.375381 C 695.49115 208.375381 703.614014 201.686523 716.456726 188.310822 C 718.855347 185.737106 720.568848 184.452255 721.594177 184.452255 Z"/>
    <path id="path7" fill="#0079f6" stroke="none" visibility="hidden" d="M 447.225433 158.825638 C 450.437561 158.825638 452.1073 162.040756 452.1073 168.116013 C 451.941254 174.996796 450.481323 181.781128 447.802185 188.115921 C 444.71933 195.655029 440.374451 202.614349 434.963531 208.696594 C 428.830627 215.652939 421.446655 221.390045 413.195496 225.610626 C 403.514221 230.481567 392.786835 232.887207 381.958984 232.620697 C 370.317688 232.758896 359.057251 228.460754 350.461975 220.594482 C 341.452057 212.556137 336.945099 200.968536 336.945099 185.835556 C 336.786987 171.853241 338.955902 157.941513 343.368408 144.678223 C 347.1633 133.202011 352.826843 122.437775 360.126312 112.810287 C 366.535706 104.326416 374.580994 97.218872 383.786865 91.909363 C 391.437347 87.257233 400.167847 84.683533 409.117126 84.450806 C 423.008972 84.450806 429.954376 90.6474 429.954376 103.037567 C 430.240753 108.981522 428.885315 114.887741 426.038147 120.109695 C 423.426636 124.397888 420.772369 126.539978 418.073364 126.539978 C 416.285339 126.539978 414.515137 126.158127 412.882233 125.423203 C 411.249268 124.684326 409.792358 123.608276 408.60498 122.265747 C 407.485229 120.963959 406.111816 119.900894 404.573364 119.138107 C 403.034912 118.376343 401.359222 117.930832 399.648743 117.826431 C 396.437592 117.826431 387.575806 117.472382 380.096375 129.531357 C 377.158691 133.526199 374.982727 138.02919 373.674042 142.812622 C 369.288422 154.07901 367.109497 166.088272 367.254669 178.182098 C 368.421234 186.894684 372.949066 194.801743 379.870636 200.205734 C 383.979767 203.062851 388.948181 204.405426 393.930511 204.000641 C 402.782349 203.019089 410.936005 198.721985 416.75769 191.975464 C 421.126404 187.279572 424.979034 182.843216 429.118011 178.053848 C 433.259979 173.263443 436.920685 168.857925 440.0672 164.806396 C 443.211731 160.754929 445.589508 158.825638 447.225433 158.825638 Z"/>
</svg>
