<?xml version="1.0" encoding="UTF-8"?>
<!-- Generated by Pixelmator Pro 3.4.3 -->
<svg width="360" height="360" viewBox="0 0 362 362" xmlns="http://www.w3.org/2000/svg">
    <path id="Path" fill="#ffffff" stroke="none" d="M 982 -433 L -218 -433 L -218 767 L 982 767 L 982 -433 Z"/>
    <path id="path1" fill="#329dc7" stroke="none" d="M 127.914001 181.919006 C 130.238007 181.919006 131.401001 184.893982 131.401001 190.843018 C 131.144989 195.072998 129.786011 199.164001 127.462006 202.708984 C 124.630005 207.44397 121.067993 211.700989 116.906006 215.317017 C 112.575012 219.137024 107.713989 222.304993 102.475006 224.72699 C 97.640991 227.077026 92.351013 228.335999 86.979004 228.414001 C 80.13501 228.414001 75.550995 222.400024 73.22699 210.370972 C 69.878998 215.849976 65.330994 220.492981 59.925995 223.950012 C 53.334991 227.812988 45.761993 229.669006 38.13501 229.286011 C 34.078003 229.461975 30.028 228.789978 26.244003 227.315002 C 22.459 225.838989 19.022003 223.593994 16.149994 220.71698 C 13.457993 218.020996 11.347 214.794983 9.947998 211.247009 C 8.548996 207.698975 7.891006 203.903015 8.014999 200.090027 C 8.014999 178.103027 15.311005 160.77301 29.903 148.096985 C 34.932007 143.48999 40.824005 139.929016 47.239014 137.622009 C 52.72699 135.919006 58.441986 135.070984 64.187988 135.098022 C 69.223999 134.935974 74.221008 136.047974 78.714996 138.330994 C 80.52301 134.583008 82.588013 132.70697 84.912994 132.70697 C 87.348999 132.788025 89.746002 133.35199 91.962006 134.366028 C 94.178986 135.382996 96.171997 136.828003 97.825989 138.622986 C 101.21701 141.330017 103.398987 145.270996 103.895996 149.585999 C 101.571014 154.854004 98.917999 159.971985 95.95401 164.911011 C 94.760986 173.197998 94.243011 181.565979 94.403992 189.937988 C 94.403992 200.713989 95.76001 206.104004 98.471985 206.104004 C 101.82901 206.104004 109.964996 199.377991 122.877991 185.927979 C 125.201996 183.255005 126.881012 181.919006 127.914001 181.919006 Z M 36.488998 193.685974 C 36.488998 203.64502 40.169006 208.625 47.528992 208.625 C 55.406006 208.495972 61.927002 204.29303 67.092987 196.015991 C 69.07901 192.76001 70.57901 189.229004 71.548004 185.538025 C 71.334991 173.010986 72.635986 160.505005 75.421997 148.289978 C 64.964996 150.359009 55.415985 155.651001 48.110992 163.421997 C 44.256989 167.437988 41.243988 172.184021 39.247986 177.380005 C 37.251999 182.577026 36.313995 188.122986 36.488998 193.685974 Z"/>
    <path id="path2" fill="#329dc7" stroke="none" d="M 213.334015 168.987976 C 213.334015 164.677002 210.881012 162.52301 205.973999 162.52301 C 202.615997 162.52301 198.871002 165.755005 194.739014 172.221008 C 190.627991 178.695984 187.618011 185.809021 185.82901 193.271973 L 185.82901 193.658997 C 185.859985 198.257996 186.545013 202.830994 187.863007 207.23999 C 188.921997 210.377991 189.605011 213.638 189.895996 216.937988 C 189.895996 221.249023 184.40799 225.560974 173.432007 229.872009 C 172.016998 230.461975 170.507996 230.791016 168.97699 230.84198 C 167.458008 230.882996 165.968994 230.405029 164.755005 229.489014 C 163.540985 228.572998 162.674011 227.273987 162.294006 225.797974 C 160.911987 221.375 160.290009 216.752014 160.454987 212.120972 C 160.454987 206.36499 160.615997 200.974976 160.937988 195.955017 C 161.260986 190.93103 161.584015 186.213013 161.907013 181.79303 C 162.230011 177.481995 162.553009 173.666016 162.876007 170.344971 C 163.197998 167.028015 163.359985 164.343994 163.359985 162.296021 C 163.359985 157.984009 161.359009 155.830017 157.355011 155.830017 C 153.35199 155.830017 148.703003 160.518005 143.408997 169.893982 C 138.11499 179.268982 135.46701 186.708008 135.46701 192.203003 C 135.420013 197.35199 136.104004 202.478027 137.501007 207.434021 C 138.561005 210.575012 139.243988 213.830994 139.535004 217.132019 C 139.535004 221.442993 134.046997 225.754028 123.071014 230.065002 C 121.656006 230.656006 120.147003 230.984985 118.615997 231.036011 C 117.096985 231.072998 115.612 230.591003 114.398987 229.674988 C 113.187012 228.763 112.317993 227.463989 111.933014 225.992004 C 110.485992 220.950989 109.864014 215.710022 110.092987 210.473022 C 109.78299 197.179016 110.496002 183.885986 112.223999 170.700989 C 114.213989 158.533997 118.699005 146.906006 125.394989 136.557007 C 126.097992 135.091003 127.158997 133.822998 128.479004 132.875977 C 129.799011 131.927002 131.335999 131.322998 132.949005 131.125977 C 137.253998 131.125977 141.191986 134.619995 144.765015 141.601013 C 145.700012 143.205017 146.479004 144.893982 147.088989 146.64502 C 149.567993 143.119995 152.84201 140.22998 156.644989 138.208984 C 160.446991 136.184021 164.671997 135.088013 168.97699 135.007019 C 174.45401 134.979004 179.752991 136.942993 183.891998 140.536011 C 185.95401 142.200989 187.609009 144.314026 188.727997 146.718994 C 189.846985 149.124023 190.402008 151.752991 190.347992 154.406006 L 190.347992 156.539001 C 193.662994 151.984009 198.003998 148.27301 203.018005 145.711975 C 208.03299 143.151001 213.579987 141.807983 219.209015 141.796997 C 222.084991 141.591003 224.972992 141.96698 227.700989 142.900024 C 230.428986 143.833008 232.942993 145.304993 235.092987 147.228027 C 236.860992 148.971985 238.253998 151.057983 239.187012 153.361023 C 240.119995 155.661011 240.571991 158.130005 240.516998 160.612976 C 240.558014 165.422974 240.167999 170.22998 239.354004 174.971985 C 238.57901 179.28302 237.708008 183.289001 236.739014 186.997009 C 235.769989 190.703979 234.898987 194.034973 234.123993 196.98999 C 233.463013 199.197998 233.072998 201.47699 232.962006 203.780029 C 232.962006 205.39502 233.479004 206.205994 234.510986 206.205994 C 237.248993 205.825989 239.777008 204.526978 241.678009 202.518982 C 244.519989 200.059021 247.359985 197.375977 250.200989 194.466003 L 258.04599 186.416016 C 260.522003 183.893005 262.190002 182.633972 263.049011 182.633972 C 264.856995 182.633972 265.761993 184.788025 265.761993 189.099976 C 265.761993 198.153015 261.209991 206.948975 252.105988 215.482971 C 244.47699 223.427002 234.049988 228.067993 223.050995 228.416992 C 213.753998 228.416992 209.105011 219.947021 209.105011 203.004028 C 209.295013 197.067993 210.007996 191.158997 211.235992 185.348022 C 212.385986 179.965027 213.088013 174.48999 213.334015 168.987976 Z"/>
    <path id="path3" fill="#329dc7" stroke="none" d="M 319.869019 211.343018 C 315.52002 216.942993 309.95697 221.481018 303.596985 224.606018 C 297.237 227.732971 290.248993 229.367981 283.162994 229.38501 C 268.895996 229.38501 258.209015 225.731995 251.106995 218.421997 C 247.60199 214.833008 244.86499 210.562012 243.066986 205.877991 C 241.268005 201.190002 240.445007 196.184021 240.647003 191.166992 C 240.237 176.536987 245.436005 162.307007 255.174011 151.39801 C 259.960999 145.927002 265.903992 141.59198 272.570007 138.708984 C 279.239014 135.822021 286.463989 134.458008 293.718994 134.713013 C 299.651978 134.495972 305.567993 135.41803 311.153992 137.429993 C 318.77301 140.53302 322.58197 143.44397 322.58197 146.156982 C 322.58197 148.315002 317.252991 149.393982 306.60199 149.393982 C 301.625977 149.302002 296.687012 150.234985 292.088013 152.138 C 287.490997 154.041016 283.333008 156.869995 279.868988 160.452026 C 276.311005 164.094971 273.52301 168.422974 271.678009 173.171997 C 269.82901 177.924011 268.960999 182.999023 269.119995 188.093018 C 268.95401 193.445984 270.786011 198.669983 274.252014 202.73999 C 276.093994 204.758972 278.367004 206.333008 280.897003 207.349976 C 283.428009 208.370972 286.154999 208.804993 288.878998 208.625977 C 294.336975 208.825989 299.73999 207.481995 304.471985 204.744995 C 300.034973 201.838013 296.432983 197.822021 294.020996 193.093018 C 291.609009 188.361023 290.470001 183.086975 290.71701 177.781982 C 290.628998 171.461975 293.031006 165.362976 297.400024 160.804016 C 299.601013 158.307983 302.317993 156.322998 305.361023 154.984009 C 308.403015 153.643982 311.703979 152.981995 315.028015 153.046997 C 322.192017 153.046997 327.328003 155.018005 330.424988 158.963013 C 333.671021 163.429993 335.309021 168.867004 335.075012 174.385986 C 334.945984 181.247986 333.429993 188.012024 330.620972 194.27002 L 331.781982 194.27002 C 337.221985 194.226013 342.445984 192.127014 346.405029 188.38501 C 347.955017 186.835022 349.281006 185.474976 350.377014 184.310974 C 350.77002 183.81897 351.258972 183.411987 351.815002 183.111023 C 352.367981 182.812012 352.978027 182.625 353.606018 182.564026 C 355.414001 182.564026 356.315979 184.721985 356.315979 189.03302 C 356.564026 192.327026 356.062012 195.633972 354.857971 198.70697 C 353.650024 201.780029 351.763977 204.541992 349.346008 206.783997 C 345.109009 210.473999 339.684998 212.505981 334.075012 212.505981 C 329.312012 212.577026 324.55603 212.187012 319.869019 211.343018 Z M 318.125 188.710999 C 320.197998 184.478027 321.299988 179.841003 321.354004 175.129028 C 321.354004 170.817993 319.932983 168.664001 317.093994 168.664001 C 315.929993 168.664001 314.963989 169.505005 314.187012 171.184021 C 313.453979 172.697021 313.057007 174.35199 313.026978 176.034973 C 312.955994 178.406006 313.372986 180.763 314.250977 182.968018 C 315.127014 185.169983 316.445984 187.166992 318.125 188.840027 L 318.125 188.710999 Z"/>
    <path id="path4" fill="#0079f6" stroke="none" visibility="hidden" d="M 758.627991 229.35199 C 769.325989 229.35199 778 220.664978 778 209.953003 C 778 199.237 769.325989 190.554016 758.627991 190.554016 C 747.929016 190.554016 739.258972 199.237 739.258972 209.953003 C 739.258972 220.664978 747.929016 229.35199 758.627991 229.35199 Z"/>
    <path id="path5" fill="#0079f6" stroke="none" visibility="hidden" d="M 558.828979 185.473022 C 560.97998 185.473022 562.054993 188.447998 562.054993 194.396973 C 561.73999 198.596985 560.338989 202.643005 557.987976 206.133972 C 555.158997 210.872986 551.593994 215.125977 547.432007 218.744995 C 543.104004 222.567993 538.242981 225.737 533.002014 228.155029 C 528.35498 230.445007 523.267029 231.703003 518.086975 231.838989 C 514.156006 232.059021 510.250977 231.112976 506.853027 229.125 C 504.085022 227.28302 501.856018 224.739014 500.393982 221.750977 C 498.244019 217.440002 496.435974 209.067993 494.973999 196.629028 C 494.169983 187.914978 492.747986 179.271973 490.710022 170.760986 C 487.491028 170.18103 484.465027 168.814026 481.896973 166.786011 C 480.703003 165.937988 479.726013 164.812012 479.057983 163.505981 C 478.390015 162.200012 478.046997 160.750977 478.057007 159.28302 C 477.952026 157.926025 478.281006 156.565979 478.994019 155.406006 C 479.705994 154.245972 480.768005 153.340027 482.026001 152.817017 C 484.872009 151.481018 487.986023 150.820007 491.130005 150.877014 C 494.372986 150.830017 497.565002 151.705017 500.330017 153.401001 C 503.880981 150.552002 506.869995 147.065002 509.145996 143.116028 C 511.578003 137.97699 512.690002 132.309021 512.372009 126.627014 C 512.504028 123.52002 511.947998 120.419983 510.742981 117.549988 C 509.536011 114.684021 507.710999 112.119995 505.401001 110.039978 C 500.94397 105.882019 494.187012 103.799011 485.127014 103.799011 C 478.182983 103.567993 471.242981 104.286987 464.495972 105.932007 C 460.276001 107.143005 456.161987 108.700012 452.195984 110.590027 C 448.773987 112.271973 445.741028 113.822021 443.09198 115.247009 C 440.822998 116.567017 438.258972 117.299011 435.635986 117.380981 C 433.312988 117.380981 432.148987 116.638 432.148987 115.148987 C 432.716003 112.442017 433.984009 109.932007 435.830017 107.872986 C 438.885986 103.971985 442.546021 100.586975 446.677979 97.848999 C 458.567017 89.453979 472.807007 85.051025 487.35498 85.275024 C 500.353027 84.830017 513.242981 87.804993 524.736023 93.90802 C 530.156006 96.825012 534.643982 101.20697 537.692993 106.559998 C 540.739014 111.913025 542.224976 118.015015 541.97699 124.171997 C 542.458984 134.161011 539.369019 143.997986 533.26001 151.911987 C 527.507019 159.153992 519.86499 164.658997 511.177979 167.820984 C 513.171997 172.257019 514.763 176.867004 515.922974 181.596008 C 517.151001 186.507019 518.344971 191.036011 519.507996 195.174011 C 520.440979 198.739014 521.773987 202.189026 523.47699 205.455017 C 523.914978 206.570984 524.653992 207.544983 525.614014 208.263977 C 526.570984 208.982971 527.710022 209.421021 528.901001 209.528992 C 531.83197 209.169983 534.562012 207.840027 536.64801 205.747009 C 539.684021 203.22699 542.685974 200.476013 545.65802 197.500977 C 548.625977 194.526001 551.275024 191.778992 553.598999 189.257996 C 556.051025 186.734985 557.794983 185.473022 558.828979 185.473022 Z M 474.570007 115.633972 C 476.25 115.633972 477.086975 117.791016 477.086975 122.10199 C 477.101013 126.250977 476.843018 130.398987 476.314026 134.517029 C 475.242004 141.583008 473.752991 148.577026 471.856995 155.469971 C 467.210022 173.057983 464.882996 183.338989 464.882996 186.314026 L 464.882996 214.830994 C 465.161011 217.747986 464.549988 220.679016 463.132019 223.242981 C 461.715027 225.804016 459.557007 227.877014 456.942017 229.190002 L 449.872986 232.421997 C 447.465027 233.487 444.853027 234.017029 442.219971 233.971985 C 436.796997 233.971985 434.085999 227.734009 434.085999 215.252014 C 434.721008 199.169983 437.655029 183.260986 442.804016 168.013977 C 446.982971 152.807007 453.10199 138.200989 461.008972 124.557983 C 462.593018 122.299011 464.481995 120.273987 466.625977 118.544006 C 468.838013 116.64801 471.659973 115.617004 474.570007 115.633972 Z"/>
    <path id="path6" fill="#0079f6" stroke="none" visibility="hidden" d="M 725.603027 185.47699 C 727.754028 185.47699 728.83197 188.452026 728.83197 194.401001 C 728.495972 198.607971 727.072021 202.651001 724.697021 206.138 C 721.867981 210.877014 718.307007 215.130005 714.140991 218.75 C 709.812988 222.56897 704.952026 225.737 699.711975 228.156006 C 694.46698 230.60498 688.744995 231.862976 682.958008 231.843018 C 680.383972 231.981995 677.812012 231.541016 675.43103 230.546997 C 673.049988 229.559998 670.922974 228.044006 669.203003 226.120972 C 665.997986 222.578979 664.237 217.966003 664.263977 213.187012 C 664.362976 207.776001 665.143005 202.396973 666.591003 197.182983 C 668.226013 191.317993 669.945984 185.155029 671.754028 178.685974 C 676.661987 161.440979 679.179016 149.35199 679.307983 142.40802 C 679.427002 140.057007 679.030029 137.70697 678.14801 135.521973 C 677.737976 134.710999 677.093018 134.046997 676.296021 133.612 C 675.502014 133.177979 674.593018 132.997986 673.690979 133.096985 C 669.817017 133.096985 665.685974 135.424011 661.296021 140.080994 C 656.39801 145.45697 652.229004 151.458008 648.89801 157.929993 C 640.476013 172.773987 635.635986 189.380981 634.76001 206.429993 L 635.533997 211.859985 C 635.797974 213.789978 635.93103 215.734009 635.921021 217.68103 C 635.825989 219.909973 635.229004 222.091003 634.169983 224.057983 C 633.11499 226.021973 631.625977 227.721985 629.817993 229.031006 C 626.04303 232.348022 621.189026 234.172974 616.164978 234.169983 C 614.778015 234.169983 613.421021 233.752991 612.270996 232.976013 C 611.120972 232.198975 610.229004 231.093018 609.70697 229.807983 C 608.187012 226.426025 607.460999 222.745972 607.575989 219.038025 C 607.833984 213.122009 608.810974 207.260986 610.482971 201.578979 C 612.419983 194.208008 614.570984 186.382996 616.939026 178.106018 C 623.135986 156.247986 626.301025 139.952026 626.429993 129.216003 C 626.630005 124.812988 625.937988 120.414001 624.393982 116.281982 C 623.745972 114.776001 622.640991 113.515015 621.229004 112.677002 C 619.822021 111.84198 618.182983 111.471985 616.552002 111.629028 C 609.578003 111.629028 602.66803 116.607971 595.825989 126.567017 C 588.981018 136.526001 582.848022 151.97998 577.424011 172.932983 C 576.002991 178.364014 574.927979 183.085999 574.195007 187.094971 L 574.002014 190.778992 C 575.830017 198.43103 577.057983 206.216003 577.682007 214.057983 C 577.682007 221.562012 575.036011 226.606018 569.741028 229.190002 L 562.669006 232.426025 C 560.390015 233.463989 557.913025 233.994019 555.406982 233.97699 C 548.952026 233.97699 545.721985 227.802979 545.721985 215.448975 C 545.721985 203.098999 549.057007 178.987976 555.729004 143.119995 C 558.184998 130.185974 559.408997 122.94397 559.408997 121.393982 C 559.408997 110.916016 556.763 105.679016 551.468018 105.679016 C 549.700989 105.664978 547.974976 106.208008 546.530029 107.229004 C 545.044006 108.263977 543.557983 109.34198 542.072021 110.465027 C 540.590027 111.583984 539.049988 112.771973 537.458984 114.02002 C 535.879028 115.065002 534.02301 115.604004 532.130005 115.572998 C 530.129028 115.572998 529.127991 113.827026 529.127991 110.335999 C 529.13501 106.81897 530.051025 103.36499 531.781006 100.30603 C 533.510986 97.245972 536.000977 94.689026 539.005981 92.874023 C 545.718994 88.039978 553.825989 85.544006 562.088989 85.760986 C 573.710022 85.760986 580.554993 91.151001 582.620972 101.927002 C 583.137024 105.159973 583.526978 108.588989 583.784973 112.208984 C 593.340027 94.31897 605.411987 85.374023 620.005005 85.374023 C 635.994995 85.374023 645.06897 93.002991 647.218994 108.263977 C 648.017029 112.940979 648.34198 117.687012 648.190002 122.429016 L 648.190002 123.979004 C 656.580994 112.341003 666.523987 106.52002 678.018982 106.52002 C 694.288025 106.52002 702.424988 116.349976 702.424988 136.007019 C 702.224976 146.116028 700.892029 156.169983 698.453003 165.979004 C 695.807007 177.427979 693.869995 185.640015 692.642029 190.619019 C 691.593994 194.38501 690.97699 198.255005 690.801025 202.161987 C 690.801025 207.073975 692.513977 209.53302 695.935974 209.53302 C 699.35498 209.53302 707.52301 202.807007 720.437012 189.356995 C 722.848999 186.768982 724.572021 185.47699 725.603027 185.47699 Z"/>
    <path id="path7" fill="#0079f6" stroke="none" visibility="hidden" d="M 449.710022 159.708008 C 452.940002 159.708008 454.619019 162.940979 454.619019 169.049988 C 454.452026 175.968994 452.984009 182.791016 450.289978 189.161011 C 447.190002 196.742004 442.820984 203.73999 437.380005 209.856018 C 431.213013 216.851013 423.788025 222.619995 415.491028 226.864014 C 405.755981 231.762024 394.968994 234.18103 384.080994 233.913025 C 372.375 234.052002 361.052002 229.72998 352.408997 221.820007 C 343.348999 213.737 338.817017 202.085022 338.817017 186.867981 C 338.65802 172.807983 340.838989 158.81897 345.276001 145.481995 C 349.09198 133.942017 354.786987 123.117981 362.127014 113.437012 C 368.572021 104.906006 376.661987 97.758972 385.919006 92.419983 C 393.612 87.742004 402.390991 85.153992 411.390015 84.919983 C 425.359009 84.919983 432.343018 91.151001 432.343018 103.609985 C 432.630981 109.586975 431.268005 115.526001 428.405029 120.776978 C 425.778992 125.088989 423.109985 127.242981 420.395996 127.242981 C 418.598022 127.242981 416.817993 126.859009 415.176025 126.119995 C 413.533997 125.377014 412.06897 124.294983 410.875 122.945007 C 409.749023 121.635986 408.367981 120.567017 406.820984 119.799988 C 405.273987 119.033997 403.588989 118.585999 401.869019 118.481018 C 398.640015 118.481018 389.729004 118.125 382.208008 130.250977 C 379.254028 134.268005 377.065979 138.796021 375.75 143.606018 C 371.340027 154.934998 369.148987 167.010986 369.294983 179.171997 C 370.468018 187.932983 375.020996 195.883972 381.981018 201.317993 C 386.112976 204.190979 391.109009 205.541016 396.119019 205.133972 C 405.02002 204.146973 413.218994 199.825989 419.072998 193.041992 C 423.466003 188.320007 427.340027 183.859009 431.502014 179.04303 C 435.666992 174.226013 439.348022 169.796021 442.512024 165.721985 C 445.674011 161.64801 448.065002 159.708008 449.710022 159.708008 Z"/>
</svg>
